<?xml version="1.0" encoding="UTF-8"?>
<svg xmlns="http://www.w3.org/2000/svg" xmlns:xlink="http://www.w3.org/1999/xlink" width="20pt" height="21pt" viewBox="0 0 20 21" version="1.1">
<defs>
<clipPath id="clip1">
  <path d="M 0 1 L 20 1 L 20 21 L 0 21 Z M 0 1 "/>
</clipPath>
</defs>
<g id="surface391">
<path style=" stroke:none;fill-rule:evenodd;fill:rgb(0%,0%,0%);fill-opacity:0.0290494;" d="M 19 11 C 19 8.613281 18.050781 6.324219 16.363281 4.636719 C 14.675781 2.949219 12.386719 2 10 2 C 7.613281 2 5.324219 2.949219 3.636719 4.636719 C 1.949219 6.324219 1 8.613281 1 11 C 1 13.386719 1.949219 15.675781 3.636719 17.363281 C 5.324219 19.050781 7.613281 20 10 20 C 12.386719 20 14.675781 19.050781 16.363281 17.363281 C 18.050781 15.675781 19 13.386719 19 11 Z M 19 11 "/>
<g clip-path="url(#clip1)" clip-rule="nonzero">
<path style="fill:none;stroke-width:1;stroke-linecap:square;stroke-linejoin:miter;stroke:rgb(0%,0%,0%);stroke-opacity:1;stroke-miterlimit:3.25;" d="M 85 16 C 85 13.613281 84.050781 11.324219 82.363281 9.636719 C 80.675781 7.949219 78.386719 7 76 7 C 73.613281 7 71.324219 7.949219 69.636719 9.636719 C 67.949219 11.324219 67 13.613281 67 16 C 67 18.386719 67.949219 20.675781 69.636719 22.363281 C 71.324219 24.050781 73.613281 25 76 25 C 78.386719 25 80.675781 24.050781 82.363281 22.363281 C 84.050781 20.675781 85 18.386719 85 16 Z M 85 16 " transform="matrix(1,0,0,1,-66,-5)"/>
</g>
</g>
</svg>
